#!OML:ASF F:\VICON\USERDATA\INSTALL\rory3\rory3.ASF
:FULLY-SPECIFIED
:DEGREES
126
root 8.81535 18.0559 -3.43575 -5.52018 -24.6849 7.4012
lowerback 11.1342 1.17855 -4.52171
upperback 0.917772 0.928598 -1.0847
thorax -5.34239 0.542283 1.26712
lowerneck -21.2505 -5.96993 -11.8817
upperneck 28.2581 -7.62201 9.70123
head 14.0755 -3.33535 4.50947
rclavicle 3.03395e-014 -1.19271e-015
rhumerus -36.7385 -16.6054 -77.8681
rradius 28.2368
rwrist 8.07092
rhand -15.4099 10.1978
rfingers 7.12502
rthumb 10.7694 -19.5061
lclavicle 3.03395e-014 -1.19271e-015
lhumerus -28.9653 4.878 80.8066
lradius 28.0957
lwrist -8.8065
lhand -18.8126 26.9231
lfingers 7.12502
lthumb 7.486 56.7707
rfemur -20.7097 -9.24146 15.751
rtibia 69.8007
rfoot -2.96316 -1.87356
rtoes 9.43242
lfemur 4.53433 0.867446 -26.5806
ltibia 2.54508
lfoot -1.93904 -5.18958
ltoes -20.2195
127
root 8.77168 18.0377 -3.34312 -5.59686 -25.03 7.49192
lowerback 11.287 1.11971 -4.62882
upperback 1.0942 0.831901 -1.09336
thorax -5.23776 0.491861 1.33344
lowerneck -22.2168 -6.11242 -11.287
upperneck 28.7542 -7.75149 9.01793
head 14.4522 -3.39306 4.10423
rclavicle -3.58061e-014 -2.38542e-015
rhumerus -36.3943 -16.8228 -77.8818
rradius 28.1306
rwrist 8.18788
rhand -15.1974 10.3866
rfingers 7.12502
rthumb 10.9743 -19.3065
lclavicle -3.58061e-014 -2.38542e-015
lhumerus -28.2891 4.62959 80.8226
lradius 28.3521
lwrist -8.24653
lhand -19.187 26.4043
lfingers 7.12502
lthumb 7.12467 56.2643
rfemur -21.5016 -9.47145 15.6969
rtibia 69.1795
rfoot -4.19492 -2.09317
rtoes 10.927
lfemur 3.52815 1.05633 -26.6172
ltibia 5.37389
lfoot -3.32878 -4.62448
ltoes -16.5613
128
root 8.72554 18.0214 -3.24974 -5.55772 -25.5661 7.38213
lowerback 11.2983 1.05434 -4.58049
upperback 1.44162 0.763026 -1.03857
thorax -4.87428 0.444774 1.37818
lowerneck -23.3911 -6.15479 -10.8012
upperneck 28.9718 -7.74962 8.63238
head 14.7566 -3.35868 3.85459
rclavicle 2.16178e-014 1.07344e-014
rhumerus -35.5812 -16.9827 -78.0627
rradius 27.9546
rwrist 8.19696
rhand -14.8807 10.7134
rfingers 7.12502
rthumb 11.2798 -18.9633
lclavicle 2.16178e-014 1.07344e-014
lhumerus -27.3441 4.52895 80.8384
lradius 28.713
lwrist -7.83555
lhand -19.2607 26.4801
lfingers 7.12502
lthumb 7.05353 56.3426
rfemur -22.2901 -9.48754 15.9209
rtibia 68.4057
rfoot -5.43574 -2.39912
rtoes 13.0567
lfemur 2.81558 1.42019 -26.4459
ltibia 7.54112
lfoot -4.08408 -4.00644
ltoes -9.61009
129
root 8.68004 18.0002 -3.15705 -5.53207 -25.9605 7.6603
lowerback 11.1618 0.927289 -4.83174
upperback 1.62856 0.573574 -1.10576
thorax -4.59266 0.346282 1.48133
lowerneck -23.7001 -6.08698 -10.7691
upperneck 28.6151 -7.69434 8.91919
head 14.6707 -3.28119 3.96718
rclavicle -8.89561e-015 -1.07344e-014
rhumerus -35.0488 -16.9055 -78.2841
rradius 27.8735
rwrist 8.14291
rhand -14.803 11.0921
rfingers 7.12502
rthumb 11.3548 -18.5805
lclavicle -8.89561e-015 -1.07344e-014
lhumerus -26.6861 4.36585 80.7583
lradius 29.0751
lwrist -7.43165
lhand -19.4771 26.8183
lfingers 7.12502
lthumb 6.84458 56.6877
rfemur -23.2598 -9.74433 15.7332
rtibia 67.544
rfoot -6.47454 -2.48835
rtoes 13.9316
lfemur 2.09313 1.65572 -26.7196
ltibia 9.4312
lfoot -5.2011 -3.59841
ltoes -9.00992
130
root 8.63252 17.9815 -3.06478 -5.46087 -26.4654 7.665
lowerback 11.2176 0.840035 -4.84787
upperback 1.61681 0.453146 -1.07657
thorax -4.62887 0.288141 1.53859
lowerneck -23.4155 -6.02806 -11.0682
upperneck 28.2348 -7.69791 9.52329
head 14.49 -3.24012 4.26174
rclavicle 6.41081e-015 -1.86858e-014
rhumerus -34.9722 -16.706 -78.3584
rradius 27.9079
rwrist 8.1137
rhand -14.7233 11.0138
rfingers 7.12502
rthumb 11.4316 -18.6545
lclavicle 6.41081e-015 -1.86858e-014
lhumerus -26.4802 4.09764 80.7002
lradius 29.4834
lwrist -7.04297
lhand -19.7846 26.8171
lfingers 7.12502
lthumb 6.54773 56.6959
rfemur -24.1059 -9.89766 15.8778
rtibia 66.4835
rfoot -7.38509 -2.62053
rtoes 13.0514
lfemur 1.62102 1.99124 -26.7003
ltibia 10.9904
lfoot -6.51121 -3.40681
ltoes -14.4085
131
root 8.5806 17.963 -2.96947 -5.46883 -27.069 7.68349
lowerback 11.346 0.853633 -4.95087
upperback 1.4954 0.450054 -1.00561
thorax -4.82905 0.295145 1.66937
lowerneck -22.8946 -6.0066 -11.3614
upperneck 28.0468 -7.74545 9.94903
head 14.3407 -3.25085 4.47842
rclavicle 2.10215e-014 -1.59028e-015
rhumerus -35.2285 -16.622 -78.2107
rradius 27.9461
rwrist 8.1786
rhand -14.5716 11.1964
rfingers 7.12502
rthumb 11.5779 -18.4638
lclavicle 2.10215e-014 -1.59028e-015
lhumerus -26.5432 3.57896 80.7519
lradius 29.9092
lwrist -6.67509
lhand -19.7468 27.0635
lfingers 7.12502
lthumb 6.58426 56.9411
rfemur -24.7898 -9.97838 16.0285
rtibia 65.2772
rfoot -8.34798 -2.71962
rtoes 10.9424
lfemur 1.44441 2.07397 -26.7059
ltibia 12.158
lfoot -7.4244 -2.73112
ltoes -16.9657
132
root 8.52959 17.9368 -2.87507 -5.54763 -27.6678 7.86171
lowerback 11.4726 0.901894 -5.18181
upperback 1.31919 0.472679 -0.975115
thorax -5.08883 0.319653 1.82536
lowerneck -22.2382 -5.99024 -11.4626
upperneck 27.9153 -7.7653 9.9852
head 14.1526 -3.28561 4.50589
rclavicle 2.90226e-014 -1.11319e-014
rhumerus -35.6463 -16.6167 -77.9833
rradius 28.0078
rwrist 8.3267
rhand -14.5031 11.3983
rfingers 7.12502
rthumb 11.644 -18.2581
lclavicle 2.90226e-014 -1.11319e-014
lhumerus -26.65 3.16298 80.769
lradius 30.2275
lwrist -6.47014
lhand -19.4266 27.2897
lfingers 7.12502
lthumb 6.89337 57.1574
rfemur -25.4283 -10.0683 16.0115
rtibia 63.9349
rfoot -9.16661 -2.91275
rtoes 10.3281
lfemur 1.36232 2.04072 -26.8837
ltibia 13.1239
lfoot -8.03426 -1.82001
ltoes -17.0284
133
root 8.47673 17.9154 -2.77955 -5.57662 -28.2829 7.99903
lowerback 11.5331 0.910299 -5.3009
upperback 1.0981 0.458223 -0.959174
thorax -5.3561 0.325418 1.90924
lowerneck -21.3736 -5.92979 -11.5106
upperneck 27.7169 -7.72598 9.91829
head 13.8756 -3.30863 4.49221
rclavicle -3.47873e-016 -5.56597e-015
rhumerus -36.0982 -16.5122 -77.7877
rradius 28.0649
rwrist 8.34862
rhand -14.5415 11.3367
rfingers 7.12502
rthumb 11.607 -18.3219
lclavicle -3.47873e-016 -5.56597e-015
lhumerus -26.8614 2.78204 80.7258
lradius 30.5442
lwrist -6.14836
lhand -19.4873 27.3428
lfingers 7.12502
lthumb 6.83476 57.2124
rfemur -26.0641 -10.2654 16.0799
rtibia 62.437
rfoot -9.91209 -3.39479
rtoes 9.84266
lfemur 1.37915 2.12007 -27.0044
ltibia 13.8339
lfoot -8.59554 -1.06147
ltoes -17.5147
134
root 8.42364 17.9036 -2.68418 -5.49507 -28.9207 7.94449
lowerback 11.6036 0.897608 -5.2013
upperback 0.849452 0.444541 -0.910841
thorax -5.65701 0.328631 1.90389
lowerneck -20.5298 -5.85878 -11.6141
upperneck 27.6199 -7.68262 9.91651
head 13.6536 -3.32767 4.52043
rclavicle 2.43511e-014 1.19271e-015
rhumerus -36.5644 -16.3256 -77.652
rradius 28.1874
rwrist 8.04807
rhand -14.5027 11.0228
rfingers 7.12502
rthumb 11.6444 -18.6336
lclavicle 2.43511e-014 1.19271e-015
lhumerus -27.1703 2.53217 80.6762
lradius 30.9443
lwrist -6.01852
lhand -19.7021 27.3069
lfingers 7.12502
lthumb 6.62736 57.1832
rfemur -26.6541 -10.5135 16.3916
rtibia 60.7519
rfoot -10.5915 -4.08364
rtoes 8.44097
lfemur 1.52564 2.25749 -26.9229
ltibia 14.251
lfoot -8.98043 -0.428178
ltoes -16.7776
135
root 8.36896 17.8944 -2.59322 -5.41262 -29.4491 7.96679
lowerback 11.7179 0.885068 -5.21057
upperback 0.620486 0.415233 -0.856919
thorax -5.9621 0.326505 1.96828
lowerneck -19.9456 -5.83738 -11.8258
upperneck 27.5769 -7.67713 10.0018
head 13.5255 -3.35588 4.59611
rclavicle 3.46382e-014 7.15625e-015
rhumerus -36.9173 -16.3903 -77.4188
rradius 28.2409
rwrist 8.05184
rhand -14.3021 10.87
rfingers 7.12502
rthumb 11.8378 -18.7754
lclavicle 3.46382e-014 7.15625e-015
lhumerus -27.4447 2.27182 80.6869
lradius 31.368
lwrist -5.95048
lhand -19.9083 27.2278
lfingers 7.12502
lthumb 6.42836 57.1103
rfemur -27.1842 -10.758 16.6458
rtibia 58.9066
rfoot -11.0775 -4.83922
rtoes 8.08668
lfemur 1.75694 2.36473 -26.9225
ltibia 14.3964
lfoot -9.27616 0.0476915
ltoes -15.8614
